<mxfile host="app.diagrams.net" modified="2020-04-01T11:01:05.203Z" agent="5.0 (Windows NT 10.0; Win64; x64) AppleWebKit/537.36 (KHTML, like Gecko) Chrome/80.0.3987.162 Safari/537.36" etag="0XEegSvXgpdAD8HkdRBA" version="12.9.6" type="github">
  <diagram id="ZjH_zw7QTnPdgtUEkbIo" name="Page-1">
    <mxGraphModel dx="1038" dy="499" grid="1" gridSize="10" guides="1" tooltips="1" connect="1" arrows="1" fold="1" page="1" pageScale="1" pageWidth="850" pageHeight="1100" math="0" shadow="0">
      <root>
        <mxCell id="0" />
        <mxCell id="1" parent="0" />
        <mxCell id="RoFGSAvfi4a_HjMrRp0E-9" style="edgeStyle=orthogonalEdgeStyle;orthogonalLoop=1;jettySize=auto;html=1;exitX=1;exitY=0.5;exitDx=0;exitDy=0;exitPerimeter=0;entryX=0;entryY=0.5;entryDx=0;entryDy=0;fontColor=#000000;strokeWidth=2;rounded=1;" parent="1" source="RoFGSAvfi4a_HjMrRp0E-2" target="RoFGSAvfi4a_HjMrRp0E-6" edge="1">
          <mxGeometry relative="1" as="geometry" />
        </mxCell>
        <mxCell id="U189jy-B2C3WC-Z2Nhvn-7" style="edgeStyle=orthogonalEdgeStyle;orthogonalLoop=1;jettySize=auto;html=1;strokeWidth=2;fontColor=#000000;rounded=1;" edge="1" parent="1" source="RoFGSAvfi4a_HjMrRp0E-2" target="U189jy-B2C3WC-Z2Nhvn-4">
          <mxGeometry relative="1" as="geometry" />
        </mxCell>
        <mxCell id="RoFGSAvfi4a_HjMrRp0E-2" value="&lt;p style=&quot;margin-top: 0pt ; margin-bottom: 0pt ; margin-left: 0in ; direction: ltr ; unicode-bidi: embed ; word-break: normal ; font-size: 16px&quot;&gt;&lt;font color=&quot;#ff0808&quot; style=&quot;font-size: 16px&quot;&gt;&lt;span style=&quot;font-family: &amp;#34;calibri&amp;#34;&quot;&gt;Scattering intensity I&lt;/span&gt;&lt;span style=&quot;font-family: &amp;#34;calibri&amp;#34; ; vertical-align: sub&quot;&gt;s&lt;/span&gt;&lt;span style=&quot;font-family: &amp;#34;calibri&amp;#34;&quot;&gt;(&lt;/span&gt;&lt;span style=&quot;font-family: &amp;#34;symbol&amp;#34;&quot;&gt;q&lt;/span&gt;&lt;span style=&quot;font-family: &amp;#34;calibri&amp;#34;&quot;&gt;,&lt;/span&gt;&lt;span style=&quot;font-family: &amp;#34;symbol&amp;#34;&quot;&gt;l&lt;/span&gt;&lt;span style=&quot;font-family: &amp;#34;calibri&amp;#34;&quot;&gt;, conc., D)&lt;/span&gt;&lt;/font&gt;&lt;/p&gt;" style="strokeWidth=2;html=1;shape=mxgraph.flowchart.start_2;whiteSpace=wrap;align=center;fillColor=#fff2cc;strokeColor=#d6b656;" parent="1" vertex="1">
          <mxGeometry x="60" y="210" width="110" height="110" as="geometry" />
        </mxCell>
        <mxCell id="RoFGSAvfi4a_HjMrRp0E-11" style="edgeStyle=orthogonalEdgeStyle;orthogonalLoop=1;jettySize=auto;html=1;exitX=1;exitY=0.5;exitDx=0;exitDy=0;entryX=0;entryY=0.5;entryDx=0;entryDy=0;fontColor=#000000;strokeWidth=2;rounded=1;" parent="1" source="RoFGSAvfi4a_HjMrRp0E-6" target="RoFGSAvfi4a_HjMrRp0E-10" edge="1">
          <mxGeometry relative="1" as="geometry" />
        </mxCell>
        <mxCell id="RoFGSAvfi4a_HjMrRp0E-6" value="&lt;p style=&quot;margin-top: 0pt ; margin-bottom: 0pt ; margin-left: 0in ; direction: ltr ; unicode-bidi: embed ; word-break: normal ; font-size: 16px&quot;&gt;&lt;span style=&quot;font-family: &amp;#34;calibri&amp;#34;&quot;&gt;Total Scattered intensity &lt;br&gt;TSI(&lt;/span&gt;&lt;span style=&quot;font-family: &amp;#34;symbol&amp;#34;&quot;&gt;l&lt;/span&gt;&lt;span style=&quot;font-family: &amp;#34;calibri&amp;#34;&quot;&gt;) = &lt;/span&gt;&lt;span style=&quot;font-family: &amp;#34;symbol&amp;#34;&quot;&gt;S&lt;/span&gt;&lt;span style=&quot;font-family: &amp;#34;calibri&amp;#34;&quot;&gt;I&lt;/span&gt;&lt;span style=&quot;font-family: &amp;#34;calibri&amp;#34; ; vertical-align: sub&quot;&gt;s&lt;/span&gt;&lt;span style=&quot;font-family: &amp;#34;calibri&amp;#34;&quot;&gt;(&lt;/span&gt;&lt;span style=&quot;font-family: &amp;#34;symbol&amp;#34;&quot;&gt;q&lt;/span&gt;&lt;span style=&quot;font-family: &amp;#34;calibri&amp;#34;&quot;&gt;,&lt;/span&gt;&lt;span style=&quot;font-family: &amp;#34;symbol&amp;#34;&quot;&gt;l&lt;/span&gt;&lt;span style=&quot;font-family: &amp;#34;calibri&amp;#34;&quot;&gt;)&lt;/span&gt;&lt;/p&gt;" style="rounded=1;whiteSpace=wrap;html=1;absoluteArcSize=1;arcSize=14;strokeWidth=2;align=center;fillColor=#dae8fc;strokeColor=#6c8ebf;" parent="1" vertex="1">
          <mxGeometry x="230" y="215" width="100" height="100" as="geometry" />
        </mxCell>
        <mxCell id="U189jy-B2C3WC-Z2Nhvn-6" style="edgeStyle=orthogonalEdgeStyle;orthogonalLoop=1;jettySize=auto;html=1;exitX=1;exitY=0.5;exitDx=0;exitDy=0;fontColor=#000000;strokeWidth=2;rounded=1;" edge="1" parent="1" source="RoFGSAvfi4a_HjMrRp0E-10" target="U189jy-B2C3WC-Z2Nhvn-5">
          <mxGeometry relative="1" as="geometry" />
        </mxCell>
        <mxCell id="U189jy-B2C3WC-Z2Nhvn-11" style="edgeStyle=orthogonalEdgeStyle;orthogonalLoop=1;jettySize=auto;html=1;entryX=1;entryY=0.5;entryDx=0;entryDy=0;strokeWidth=2;fontColor=#000000;rounded=1;" edge="1" parent="1" source="RoFGSAvfi4a_HjMrRp0E-10" target="U189jy-B2C3WC-Z2Nhvn-4">
          <mxGeometry relative="1" as="geometry">
            <Array as="points">
              <mxPoint x="440" y="420" />
            </Array>
          </mxGeometry>
        </mxCell>
        <mxCell id="RoFGSAvfi4a_HjMrRp0E-10" value="&lt;p style=&quot;margin-top: 0pt ; margin-bottom: 0pt ; margin-left: 0in ; direction: ltr ; unicode-bidi: embed ; word-break: normal ; font-size: 16px&quot;&gt;&lt;span style=&quot;font-family: &amp;#34;calibri&amp;#34;&quot;&gt;&lt;font style=&quot;font-size: 16px&quot;&gt;Conc. Normalization&lt;/font&gt;&lt;/span&gt;&lt;/p&gt;&lt;p style=&quot;margin-top: 0pt ; margin-bottom: 0pt ; margin-left: 0in ; direction: ltr ; unicode-bidi: embed ; word-break: normal ; font-size: 16px&quot;&gt;&lt;font style=&quot;font-size: 16px&quot;&gt;&lt;span style=&quot;font-family: &amp;#34;calibri&amp;#34;&quot;&gt;cNTS&lt;/span&gt;&lt;span style=&quot;font-family: &amp;#34;calibri&amp;#34;&quot;&gt; = &lt;/span&gt;&lt;span style=&quot;font-family: &amp;#34;symbol&amp;#34;&quot;&gt;S&lt;/span&gt;&lt;span style=&quot;font-family: &amp;#34;calibri&amp;#34;&quot;&gt;I&lt;/span&gt;&lt;span style=&quot;font-family: &amp;#34;calibri&amp;#34; ; vertical-align: sub&quot;&gt;s&lt;/span&gt;&lt;span style=&quot;font-family: &amp;#34;calibri&amp;#34;&quot;&gt;(&lt;/span&gt;&lt;span style=&quot;font-family: &amp;#34;symbol&amp;#34;&quot;&gt;l&lt;/span&gt;&lt;span style=&quot;font-family: &amp;#34;calibri&amp;#34;&quot;&gt; ,&lt;br&gt;conc.)&lt;/span&gt;&lt;/font&gt;&lt;/p&gt;" style="rounded=1;whiteSpace=wrap;html=1;absoluteArcSize=1;arcSize=14;strokeWidth=2;align=center;fillColor=#dae8fc;strokeColor=#6c8ebf;" parent="1" vertex="1">
          <mxGeometry x="390" y="215" width="100" height="100" as="geometry" />
        </mxCell>
        <mxCell id="U189jy-B2C3WC-Z2Nhvn-3" style="edgeStyle=orthogonalEdgeStyle;orthogonalLoop=1;jettySize=auto;html=1;entryX=0.5;entryY=0;entryDx=0;entryDy=0;fontColor=#000000;strokeWidth=2;rounded=1;" edge="1" parent="1" source="U189jy-B2C3WC-Z2Nhvn-1" target="RoFGSAvfi4a_HjMrRp0E-10">
          <mxGeometry relative="1" as="geometry" />
        </mxCell>
        <mxCell id="U189jy-B2C3WC-Z2Nhvn-1" value="&lt;p style=&quot;margin-top: 0pt ; margin-bottom: 0pt ; margin-left: 0in ; direction: ltr ; unicode-bidi: embed ; word-break: normal ; font-size: 16px&quot;&gt;&lt;span style=&quot;font-family: &amp;#34;calibri&amp;#34;&quot;&gt;Calibrated TSI vs. Concentration &lt;br&gt;&lt;/span&gt;&lt;span style=&quot;font-family: &amp;#34;calibri&amp;#34;&quot;&gt;TSI_cal&lt;/span&gt;&lt;span style=&quot;font-family: &amp;#34;calibri&amp;#34;&quot;&gt;(TSI,&lt;/span&gt;&lt;span style=&quot;font-family: &amp;#34;symbol&amp;#34;&quot;&gt; l&lt;/span&gt;&lt;span style=&quot;font-family: &amp;#34;calibri&amp;#34;&quot;&gt;, conc.)&lt;/span&gt;&lt;/p&gt;" style="strokeWidth=2;html=1;shape=mxgraph.flowchart.stored_data;whiteSpace=wrap;align=center;fillColor=#ffe6cc;strokeColor=#d79b00;" vertex="1" parent="1">
          <mxGeometry x="362.5" y="110" width="155" height="70" as="geometry" />
        </mxCell>
        <mxCell id="U189jy-B2C3WC-Z2Nhvn-13" style="edgeStyle=orthogonalEdgeStyle;orthogonalLoop=1;jettySize=auto;html=1;strokeWidth=2;fontColor=#000000;rounded=1;" edge="1" parent="1" source="U189jy-B2C3WC-Z2Nhvn-4" target="U189jy-B2C3WC-Z2Nhvn-12">
          <mxGeometry relative="1" as="geometry" />
        </mxCell>
        <mxCell id="U189jy-B2C3WC-Z2Nhvn-4" value="&lt;p style=&quot;margin-top: 0pt ; margin-bottom: 0pt ; margin-left: 0in ; direction: ltr ; unicode-bidi: embed ; word-break: normal ; font-size: 16px&quot;&gt;&lt;span style=&quot;font-family: &amp;#34;calibri&amp;#34;&quot;&gt;Conc. corrected scattering intensity&lt;br&gt;I&lt;/span&gt;&lt;span style=&quot;font-family: &amp;#34;calibri&amp;#34; ; vertical-align: sub&quot;&gt;s&lt;/span&gt;&lt;span style=&quot;font-family: &amp;#34;calibri&amp;#34;&quot;&gt;(&lt;/span&gt;&lt;span style=&quot;font-family: &amp;#34;symbol&amp;#34;&quot;&gt;q&lt;/span&gt;&lt;span style=&quot;font-family: &amp;#34;calibri&amp;#34;&quot;&gt;,&lt;/span&gt;&lt;span style=&quot;font-family: &amp;#34;symbol&amp;#34;&quot;&gt;l&lt;/span&gt;&lt;span style=&quot;font-family: &amp;#34;calibri&amp;#34;&quot;&gt;)/&lt;/span&gt;&lt;span style=&quot;font-family: &amp;#34;calibri&amp;#34;&quot;&gt;cNTS&lt;/span&gt;&lt;/p&gt;" style="rounded=1;whiteSpace=wrap;html=1;absoluteArcSize=1;arcSize=14;strokeWidth=2;align=center;fillColor=#dae8fc;strokeColor=#6c8ebf;" vertex="1" parent="1">
          <mxGeometry x="65" y="370" width="100" height="100" as="geometry" />
        </mxCell>
        <mxCell id="U189jy-B2C3WC-Z2Nhvn-5" value="&lt;p style=&quot;margin-top: 0pt ; margin-bottom: 0pt ; margin-left: 0in ; direction: ltr ; unicode-bidi: embed ; word-break: normal&quot;&gt;&lt;span style=&quot;font-family: &amp;#34;calibri&amp;#34;&quot;&gt;&lt;font style=&quot;font-size: 16px&quot;&gt;Number Concentration&amp;nbsp;&lt;/font&gt;&lt;/span&gt;&lt;/p&gt;" style="strokeWidth=2;html=1;shape=mxgraph.flowchart.terminator;whiteSpace=wrap;align=center;fillColor=#d5e8d4;strokeColor=#82b366;" vertex="1" parent="1">
          <mxGeometry x="530" y="235" width="110" height="60" as="geometry" />
        </mxCell>
        <mxCell id="U189jy-B2C3WC-Z2Nhvn-21" style="edgeStyle=orthogonalEdgeStyle;rounded=1;orthogonalLoop=1;jettySize=auto;html=1;entryX=0;entryY=0.5;entryDx=0;entryDy=0;entryPerimeter=0;strokeWidth=2;fontColor=#000000;" edge="1" parent="1" source="U189jy-B2C3WC-Z2Nhvn-12" target="U189jy-B2C3WC-Z2Nhvn-19">
          <mxGeometry relative="1" as="geometry" />
        </mxCell>
        <mxCell id="U189jy-B2C3WC-Z2Nhvn-12" value="&lt;span style=&quot;font-family: &amp;#34;calibri&amp;#34; ; font-size: 16px&quot;&gt;(Absolute and differential)&amp;nbsp;&lt;/span&gt;&lt;p style=&quot;margin-top: 0pt ; margin-bottom: 0pt ; margin-left: 0in ; direction: ltr ; unicode-bidi: embed ; word-break: normal ; font-size: 16px&quot;&gt;&lt;span style=&quot;font-family: &amp;#34;calibri&amp;#34;&quot;&gt;Angular distribution of scattering&lt;br&gt;&lt;/span&gt;&lt;/p&gt;" style="rounded=1;whiteSpace=wrap;html=1;absoluteArcSize=1;arcSize=14;strokeWidth=2;align=center;fillColor=#dae8fc;strokeColor=#6c8ebf;" vertex="1" parent="1">
          <mxGeometry x="65" y="520" width="100" height="100" as="geometry" />
        </mxCell>
        <mxCell id="U189jy-B2C3WC-Z2Nhvn-18" style="edgeStyle=orthogonalEdgeStyle;rounded=1;orthogonalLoop=1;jettySize=auto;html=1;entryX=1;entryY=0.25;entryDx=0;entryDy=0;strokeWidth=2;fontColor=#000000;" edge="1" parent="1" source="U189jy-B2C3WC-Z2Nhvn-14" target="U189jy-B2C3WC-Z2Nhvn-12">
          <mxGeometry relative="1" as="geometry" />
        </mxCell>
        <mxCell id="U189jy-B2C3WC-Z2Nhvn-14" value="&lt;p style=&quot;margin-top: 0pt ; margin-bottom: 0pt ; margin-left: 0in ; direction: ltr ; unicode-bidi: embed ; word-break: normal ; font-size: 16px&quot;&gt;&lt;span style=&quot;font-family: &amp;#34;calibri&amp;#34;&quot;&gt;Calibrated I&lt;sub&gt;s&lt;/sub&gt; vs. Soot diameter (D)&lt;br&gt;&lt;/span&gt;&lt;span style=&quot;font-family: &amp;#34;calibri&amp;#34;&quot;&gt;I&lt;/span&gt;&lt;sub style=&quot;font-family: &amp;#34;calibri&amp;#34;&quot;&gt;s,&amp;nbsp;&lt;/sub&gt;&lt;span style=&quot;font-family: &amp;#34;calibri&amp;#34;&quot;&gt;&lt;sub&gt;cal&lt;/sub&gt;&lt;/span&gt;&lt;span style=&quot;font-family: &amp;#34;calibri&amp;#34;&quot;&gt;(TSI,&lt;/span&gt;&lt;span style=&quot;font-family: &amp;#34;symbol&amp;#34;&quot;&gt; l&lt;/span&gt;&lt;span style=&quot;font-family: &amp;#34;calibri&amp;#34;&quot;&gt;, D)&lt;/span&gt;&lt;/p&gt;" style="strokeWidth=2;html=1;shape=mxgraph.flowchart.stored_data;whiteSpace=wrap;align=center;fillColor=#ffe6cc;strokeColor=#d79b00;" vertex="1" parent="1">
          <mxGeometry x="360" y="440" width="160" height="70" as="geometry" />
        </mxCell>
        <mxCell id="U189jy-B2C3WC-Z2Nhvn-19" value="&lt;p style=&quot;margin-top: 0pt ; margin-bottom: 0pt ; margin-left: 0in ; direction: ltr ; unicode-bidi: embed ; word-break: normal&quot;&gt;&lt;span style=&quot;font-family: &amp;#34;calibri&amp;#34;&quot;&gt;&lt;font style=&quot;font-size: 16px&quot;&gt;Average soot diameter&lt;/font&gt;&lt;/span&gt;&lt;/p&gt;" style="strokeWidth=2;html=1;shape=mxgraph.flowchart.terminator;whiteSpace=wrap;align=center;fillColor=#d5e8d4;strokeColor=#82b366;" vertex="1" parent="1">
          <mxGeometry x="530" y="540" width="110" height="60" as="geometry" />
        </mxCell>
      </root>
    </mxGraphModel>
  </diagram>
</mxfile>
